<svg width="128" height="128" viewBox="0 0 128 128" fill="none" xmlns="http://www.w3.org/2000/svg">
  <defs>
    <!-- Background gradient -->
    <linearGradient id="bgGradient" x1="0%" y1="0%" x2="100%" y2="100%">
      <stop offset="0%" style="stop-color:#667eea;stop-opacity:1" />
      <stop offset="100%" style="stop-color:#764ba2;stop-opacity:1" />
    </linearGradient>
    
    <!-- Color palette gradients -->
    <linearGradient id="color1" x1="0%" y1="0%" x2="100%" y2="100%">
      <stop offset="0%" style="stop-color:#ff6b6b;stop-opacity:1" />
      <stop offset="100%" style="stop-color:#ee5a52;stop-opacity:1" />
    </linearGradient>
    
    <linearGradient id="color2" x1="0%" y1="0%" x2="100%" y2="100%">
      <stop offset="0%" style="stop-color:#4ecdc4;stop-opacity:1" />
      <stop offset="100%" style="stop-color:#44a08d;stop-opacity:1" />
    </linearGradient>
    
    <linearGradient id="color3" x1="0%" y1="0%" x2="100%" y2="100%">
      <stop offset="0%" style="stop-color:#45b7d1;stop-opacity:1" />
      <stop offset="100%" style="stop-color:#96c93d;stop-opacity:1" />
    </linearGradient>
    
    <linearGradient id="color4" x1="0%" y1="0%" x2="100%" y2="100%">
      <stop offset="0%" style="stop-color:#f093fb;stop-opacity:1" />
      <stop offset="100%" style="stop-color:#f5576c;stop-opacity:1" />
    </linearGradient>
    
    <linearGradient id="color5" x1="0%" y1="0%" x2="100%" y2="100%">
      <stop offset="0%" style="stop-color:#4facfe;stop-opacity:1" />
      <stop offset="100%" style="stop-color:#00f2fe;stop-opacity:1" />
    </linearGradient>
    
    <linearGradient id="color6" x1="0%" y1="0%" x2="100%" y2="100%">
      <stop offset="0%" style="stop-color:#ffecd2;stop-opacity:1" />
      <stop offset="100%" style="stop-color:#fcb69f;stop-opacity:1" />
    </linearGradient>
  </defs>
  
  <!-- Background with rounded corners -->
  <rect width="128" height="128" rx="28" fill="url(#bgGradient)"/>
  
  <!-- Main content area -->
  <rect x="20" y="20" width="88" height="88" rx="16" fill="white" fill-opacity="0.95"/>
  
  <!-- Color palette grid -->
  <g transform="translate(32, 32)">
    <!-- Top row -->
    <rect x="0" y="0" width="18" height="18" rx="4" fill="url(#color1)"/>
    <rect x="22" y="0" width="18" height="18" rx="4" fill="url(#color2)"/>
    <rect x="44" y="0" width="18" height="18" rx="4" fill="url(#color3)"/>
    
    <!-- Bottom row -->
    <rect x="0" y="22" width="18" height="18" rx="4" fill="url(#color4)"/>
    <rect x="22" y="22" width="18" height="18" rx="4" fill="url(#color5)"/>
    <rect x="44" y="22" width="18" height="18" rx="4" fill="url(#color6)"/>
  </g>
  
  <!-- CSS brackets symbol -->
  <g transform="translate(64, 84)">
    <path d="M-12 -6 L-16 -6 L-16 6 L-12 6" stroke="#667eea" stroke-width="2.5" fill="none" stroke-linecap="round"/>
    <path d="M12 -6 L16 -6 L16 6 L12 6" stroke="#667eea" stroke-width="2.5" fill="none" stroke-linecap="round"/>
    <circle cx="-4" cy="0" r="1.5" fill="#667eea"/>
    <circle cx="0" cy="0" r="1.5" fill="#667eea"/>
    <circle cx="4" cy="0" r="1.5" fill="#667eea"/>
  </g>
</svg>